<svg width="145" height="145" viewBox="0 0 145 145" fill="none" xmlns="http://www.w3.org/2000/svg">
<path d="M37.032 113.628C36.1787 113.628 35.24 113.201 34.216 112.348C33.192 111.409 32.296 110.257 31.528 108.892C30.76 107.527 30.376 106.204 30.376 104.924C30.376 102.705 30.8027 99.7187 31.656 95.964C32.5093 92.124 33.576 87.772 34.856 82.908C36.2213 77.9587 37.6293 72.7533 39.08 67.292C40.5307 61.8307 41.8107 56.3693 42.92 50.908C44.1147 45.3613 44.9253 40.1133 45.352 35.164C41.1707 35.2493 37.2027 35.4627 33.448 35.804C29.6933 36.06 26.3653 36.188 23.464 36.188C22.6107 36.188 21.672 35.7613 20.648 34.908C19.624 34.0547 18.7707 33.0307 18.088 31.836C17.4053 30.556 17.064 29.3613 17.064 28.252C17.064 27.8253 17.2347 27.4413 17.576 27.1C17.9173 26.6733 18.728 26.332 20.008 26.076C21.288 25.7347 23.336 25.4787 26.152 25.308C28.968 25.1373 32.8507 25.0093 37.8 24.924C42.7493 24.7533 49.064 24.668 56.744 24.668C58.1947 24.668 60.1147 24.7533 62.504 24.924C64.9787 25.0947 67.5813 25.3933 70.312 25.82C73.0427 26.2467 75.6453 26.8013 78.12 27.484C80.5947 28.1667 82.6 29.02 84.136 30.044C85.672 31.068 86.44 32.3053 86.44 33.756C86.44 35.3773 85.032 36.188 82.216 36.188C78.8027 36.2733 74.792 36.1453 70.184 35.804C65.576 35.3773 60.84 35.1213 55.976 35.036C55.6347 37.5107 54.9947 40.924 54.056 45.276C53.2027 49.628 52.1787 54.4493 50.984 59.74C49.8747 65.0307 48.7227 70.364 47.528 75.74C46.3333 81.0307 45.1813 85.98 44.072 90.588C43.048 95.1107 42.1947 98.8653 41.512 101.852C40.8293 104.753 40.4027 106.417 40.232 106.844C39.0373 111.367 37.9707 113.628 37.032 113.628Z" fill="#D7FA74"/>
<path d="M106.125 114.75C101.5 114.75 97.2708 113.583 93.4375 111.25C89.6458 108.917 86.625 105.792 84.375 101.875C82.1667 97.9167 81.0625 93.5208 81.0625 88.6875L81.1875 48.75C81.1875 44 82.2708 39.7083 84.4375 35.875C86.6042 32 89.5833 28.8958 93.375 26.5625C97.2083 24.1875 101.458 23 106.125 23C110.875 23 115.104 24.1458 118.812 26.4375C122.562 28.7292 125.542 31.8333 127.75 35.75C130 39.625 131.125 43.9583 131.125 48.75V54.625C131.125 54.9583 130.958 55.125 130.625 55.125H116.25C115.917 55.125 115.75 54.9583 115.75 54.625V48.75C115.75 45.9167 114.833 43.4792 113 41.4375C111.167 39.3958 108.875 38.375 106.125 38.375C103.083 38.375 100.75 39.4167 99.125 41.5C97.5 43.5833 96.6875 46 96.6875 48.75V88.6875C96.6875 91.8125 97.6042 94.375 99.4375 96.375C101.271 98.3333 103.5 99.3125 106.125 99.3125C108.875 99.3125 111.167 98.2292 113 96.0625C114.833 93.8542 115.75 91.3958 115.75 88.6875V82.75C115.75 82.4167 115.917 82.25 116.25 82.25H130.75C131.083 82.25 131.25 82.4167 131.25 82.75V88.6875C131.25 93.4792 130.125 97.8542 127.875 101.812C125.583 105.729 122.562 108.875 118.812 111.25C115.062 113.583 110.833 114.75 106.125 114.75Z" fill="#83F9FB"/>
</svg>
